<svg id="visual" viewBox="0 0 900 450" width="900" height="450" xmlns="http://www.w3.org/2000/svg" xmlns:xlink="http://www.w3.org/1999/xlink" version="1.1"><rect x="0" y="0" width="900" height="450" fill="#283137"></rect><path d="M0 413L16.7 411.5C33.3 410 66.7 407 100 409C133.3 411 166.7 418 200 420.7C233.3 423.3 266.7 421.7 300 417.3C333.3 413 366.7 406 400 400.2C433.3 394.3 466.7 389.7 500 385.3C533.3 381 566.7 377 600 383.3C633.3 389.7 666.7 406.3 700 409C733.3 411.7 766.7 400.3 800 392.5C833.3 384.7 866.7 380.3 883.3 378.2L900 376L900 451L883.3 451C866.7 451 833.3 451 800 451C766.7 451 733.3 451 700 451C666.7 451 633.3 451 600 451C566.7 451 533.3 451 500 451C466.7 451 433.3 451 400 451C366.7 451 333.3 451 300 451C266.7 451 233.3 451 200 451C166.7 451 133.3 451 100 451C66.7 451 33.3 451 16.7 451L0 451Z" fill="#e2e4ec" stroke-linecap="round" stroke-linejoin="miter"></path></svg>