<svg id="visual" viewBox="0 0 900 450" width="900" height="450" xmlns="http://www.w3.org/2000/svg" xmlns:xlink="http://www.w3.org/1999/xlink" version="1.1"><rect x="0" y="0" width="900" height="450" fill="#e2e4ec"></rect><path d="M0 374L16.7 381.2C33.3 388.3 66.7 402.7 100 408C133.3 413.3 166.7 409.7 200 406.2C233.3 402.7 266.7 399.3 300 399.2C333.3 399 366.7 402 400 407C433.3 412 466.7 419 500 424.3C533.3 429.7 566.7 433.3 600 433C633.3 432.7 666.7 428.3 700 423.3C733.3 418.3 766.7 412.7 800 412.2C833.3 411.7 866.7 416.3 883.3 418.7L900 421L900 451L883.3 451C866.7 451 833.3 451 800 451C766.7 451 733.3 451 700 451C666.7 451 633.3 451 600 451C566.7 451 533.3 451 500 451C466.7 451 433.3 451 400 451C366.7 451 333.3 451 300 451C266.7 451 233.3 451 200 451C166.7 451 133.3 451 100 451C66.7 451 33.3 451 16.7 451L0 451Z" fill="#283137" stroke-linecap="round" stroke-linejoin="miter"></path></svg>